<svg id="Calque_1" data-name="Calque 1" xmlns="http://www.w3.org/2000/svg" viewBox="0 0 64 486.43">
    <defs>
        <style>
            .cls-1,.cls-3{fill:none;stroke-width:10px;}.cls-1{stroke:#97adbc;stroke-linecap:round;}.cls-2,.cls-4{fill:#a3bccc;}.cls-3,.cls-4{stroke:#a3bccc;}.cls-4{stroke-miterlimit:10;stroke-width:2px;}</style>
    </defs>
    <title>
        Indicateurs</title>
    <g id="Indicateurs">
        <path class="cls-1" d="M32.42,425.08c.44,22.26.55,35.14.21,57.4" transform="translate(0 -1.05)"/>
        <path class="cls-1" d="M32.83,275.06c.05,32.37.09,63.15.07,93.8,0,.89,0-1,0,0" transform="translate(0 -1.05)"/>
        <path class="cls-1" d="M32.41,119.11c.45,36.94.38,58.38.28,95.2" transform="translate(0 -1.05)"/>
        <path class="cls-1" d="M32.55,6.05c.44,22.26.55,35.13.21,57.4" transform="translate(0 -1.05)"/>
        <g id="Tracé_42" data-name="Tracé 42">
            <path class="cls-2" d="M32,59.5a32,32,0,1,0,32,32A32,32,0,0,0,32,59.5Zm0,54a22,22,0,1,1,22-22A22,22,0,0,1,32,113.5Z" transform="translate(0 -1.05)"/>
        </g>
        <g id="Ellipse_2" data-name="Ellipse 2">
            <path class="cls-3" d="M32,217.5a27,27,0,1,0,27,27A27,27,0,0,0,32,217.5Z" transform="translate(0 -1.05)"/>
        </g>
        <g id="Ellipse_3" data-name="Ellipse 3">
            <path class="cls-3" d="M32,370.5a27,27,0,1,0,27,27A27,27,0,0,0,32,370.5ZM34,396m-8-1" transform="translate(0 -1.05)"/>
        </g>
    </g>
    <ellipse id="Page4" class="cls-4" cx="31.94" cy="90.64" rx="21.75" ry="22.31"/>
    <ellipse id="Page3" class="cls-4" cx="32.13" cy="242.38" rx="21.75" ry="22.31"/>
    <ellipse id="Page2" class="cls-4" cx="31.84" cy="396.22" rx="21.75" ry="22.31"/>
</svg>
