<svg xmlns="http://www.w3.org/2000/svg" width="83" height="71" viewBox="0 0 83 71">
  <g id="Polygone_12" data-name="Polygone 12" transform="translate(83 71) rotate(180)" fill="#9bb2c0">
    <path d="M 67.31478118896484 70.5 L 15.68521976470947 70.5 C 12.60280990600586 70.5 9.846719741821289 68.90384674072266 8.312660217285156 66.23028564453125 C 6.778610229492188 63.55672836303711 6.791389942169189 60.37182998657227 8.346859931945801 57.71067047119141 L 34.16162872314453 13.54562950134277 C 35.70272827148438 10.90903949737549 38.44604873657227 9.334959030151367 41.5 9.334959030151367 C 44.55395126342773 9.334959030151367 47.29727172851563 10.90903949737549 48.83837127685547 13.54562950134277 L 74.65315246582031 57.71067047119141 C 76.2086181640625 60.37182998657227 76.22139739990234 63.55673980712891 74.68733978271484 66.23030090332031 C 73.15328216552734 68.90384674072266 70.39718627929688 70.5 67.31478118896484 70.5 Z" stroke="none"/>
    <path d="M 41.5 9.8349609375 C 38.62569046020508 9.8349609375 36.04375076293945 11.31645202636719 34.59329986572266 13.79795074462891 L 8.778518676757813 57.96298980712891 C 7.314552307128906 60.46760940551758 7.302520751953125 63.46516036987305 8.746337890625 65.9814453125 C 10.19016265869141 68.49774169921875 12.78414154052734 70 15.68522644042969 70 L 67.31478118896484 70 C 70.21586608886719 70 72.80983734130859 68.49774169921875 74.253662109375 65.9814453125 C 75.69747161865234 63.46516036987305 75.68544006347656 60.46760940551758 74.22146606445313 57.96298980712891 L 48.40670013427734 13.79795074462891 C 46.95624923706055 11.31645202636719 44.37429809570313 9.8349609375 41.5 9.8349609375 M 41.5 8.8349609375 C 44.51637268066406 8.8349609375 47.53274536132813 10.32108306884766 49.27003860473633 13.29331970214844 L 75.08480834960938 57.45835876464844 C 78.59178161621094 63.45822906494141 74.26439666748047 71 67.31478118896484 71 L 15.68522644042969 71 C 8.735588073730469 71 4.408218383789063 63.45822906494141 7.915176391601563 57.45835876464844 L 33.72996139526367 13.29331970214844 C 35.46725463867188 10.32108306884766 38.48362731933594 8.8349609375 41.5 8.8349609375 Z" stroke="none" fill="#707070"/>
  </g>
</svg>
